<svg xmlns="http://www.w3.org/2000/svg" width="32" height="32" viewBox="0 0 24 24"><!-- Icon from Huge Icons by Hugeicons - undefined --><g fill="none" stroke="currentColor" stroke-linecap="round" stroke-linejoin="round"><path stroke-width="1.5" d="M14.496 2h-5a1.5 1.5 0 0 0 0 3h5a1.5 1.5 0 0 0 0-3"/><path stroke-width="1.5" d="M15.996 3.5c1.554.047 2.48.22 3.121.862c.88.878.88 2.292.88 5.12V16c0 2.828 0 4.242-.88 5.121c-.878.879-2.293.879-5.12.879h-4c-2.83 0-4.244 0-5.122-.879S3.996 18.828 3.996 16V9.483c0-2.828 0-4.243.879-5.121c.641-.642 1.568-.815 3.121-.862"/><path stroke-width="1.5" d="m7.496 11l1 1l2-2.5m2.5 7.5h3m-3-6h3"/><path stroke-width="2" d="M8.486 16.868h.01"/></g></svg>