<svg xmlns="http://www.w3.org/2000/svg" width="32" height="32" viewBox="0 0 512 512"><!-- Icon from Siemens Industrial Experience Icons by Siemens AG - https://github.com/siemens/ix-icons/blob/main/LICENSE.md --><path fill="currentColor" fill-rule="evenodd" d="M85.333 64h277.334v85.333H320v-42.666H85.333v192h192v42.666H224V384h32v42.667H149.333V384h32v-42.667H42.667V64zm189.412 115.006l-13.276 7.665a59.8 59.8 0 0 1 2.166 15.996a59.8 59.8 0 0 1-2.166 15.996l13.276 7.665a74 74 0 0 1-5.318 12.172l-1.658 2.873a75 75 0 0 1-7.977 10.809l-13.271-7.662c-7.49 7.626-17.011 13.251-27.686 15.998v15.322a75 75 0 0 1-14.93 1.493a75 75 0 0 1-14.937-1.494v-15.321c-10.677-2.748-20.199-8.374-27.689-16.002l-13.267 7.66a75 75 0 0 1-8.278-11.313l-1.063-1.842a74 74 0 0 1-5.608-12.701l13.27-7.662a59.8 59.8 0 0 1-2.165-15.991c0-5.539.754-10.901 2.165-15.991l-13.271-7.661a74 74 0 0 1 5.648-12.772l.984-1.705a75 75 0 0 1 8.317-11.38l13.267 7.66c7.491-7.628 17.013-13.254 27.69-16.003v-15.321a75 75 0 0 1 14.73-1.494h.415c5.04.014 9.963.527 14.722 1.493v15.323c10.676 2.747 20.196 8.372 27.686 15.998l13.273-7.662a75 75 0 0 1 8.001 10.851l1.608 2.786a74 74 0 0 1 5.342 12.217m-48.446 23.661c0 12.371-10.028 22.4-22.4 22.4s-22.4-10.029-22.4-22.4c0-12.372 10.029-22.4 22.4-22.4c12.372 0 22.4 10.028 22.4 22.4m243.034-32V448H298.667V170.667zm-42.666 42.666h-85.334V256h85.334zm-85.334 192v-128h85.334v128zm64-85.333v42.667h-42.666V320z" clip-rule="evenodd"/></svg>