<?xml version="1.0" standalone="no"?>
<!DOCTYPE svg PUBLIC "-//W3C//DTD SVG 20010904//EN"
 "http://www.w3.org/TR/2001/REC-SVG-20010904/DTD/svg10.dtd">
<svg version="1.0" xmlns="http://www.w3.org/2000/svg"
 width="143.000000pt" height="143.000000pt" viewBox="0 0 143.000000 143.000000"
 preserveAspectRatio="xMidYMid meet">

<g transform="translate(0.000000,143.000000) scale(0.100000,-0.100000)"
fill="currentColor" stroke="none">
<path d="M530 1309 c-208 -30 -376 -182 -446 -404 -21 -65 -26 -100 -26 -185
1 -121 17 -193 67 -295 160 -328 579 -411 835 -166 134 129 195 283 188 476
-3 94 -6 104 -41 167 -63 113 -142 162 -264 162 -89 1 -108 -13 -61 -42 138
-86 193 -293 119 -454 -28 -62 -90 -129 -152 -163 -48 -27 -63 -30 -139 -30
-72 0 -92 4 -135 27 -58 30 -124 97 -154 156 -11 21 -26 69 -32 106 -11 57
-10 80 6 163 41 220 174 391 362 469 l58 24 -65 -1 c-36 -1 -90 -5 -120 -10z"/>
<path d="M734 1305 c-149 -32 -296 -151 -366 -295 -76 -158 -90 -344 -32 -450
63 -117 148 -172 271 -174 81 -1 98 7 62 31 -47 33 -92 87 -117 142 -34 74
-43 214 -18 289 22 64 115 168 182 201 95 48 216 37 302 -26 124 -93 172 -237
139 -420 -39 -213 -171 -384 -362 -465 l-40 -17 86 0 c153 -1 279 55 387 173
106 117 157 269 149 451 -9 238 -120 421 -311 515 -121 60 -210 72 -332 45z"/>
</g>
</svg>
